_________________________  Visit us at _________________________
  
http://p2pdl.com  ____________________________  http://p2pdl.com


Hitchcock 2012 BRRip 720p x264 AAC - PRiSTiNE

Genre: Biography | Drama
Plot: A love story between influential filmmaker Alfred Hitchcock and 
wife Alma Reville during the filming of Psycho in 1959.
Director: Sacha Gervasi
Stars: Anthony Hopkins, Helen Mirren, Scarlett Johansson
Rated: Rated PG-13 for some violent images, sexual content and thematic material

Info: 
http://www.imdb.com/title/tt0975645/

Trailer:

General
Complete name                  : Hitchcock 2012 BRRip 720p x264 AAC - PRiSTiNE.mp4
Format                         : MPEG-4
Format profile                 : Base Media
Codec ID                       : isom
File size                      : 551 MiB
Duration                       : 1h 38mn
Overall bit rate mode          : Variable
Overall bit rate               : 784 Kbps

Source                         : 720p.BluRay.x264-Felony (Thanks)

Video
Format                         : AVC
Format/Info                    : Advanced Video Codec
Format profile                 : High 10@L4.1
Format settings, CABAC         : Yes
Format settings, ReFrames      : 4 frames
Codec ID/Info                  : Advanced Video Coding
Duration                       : 1h 38mn
Bit rate                       : 697 Kbps
Width                          : 1 264 pixels
Height                         : 528 pixels
Display aspect ratio           : 2.40:1
Frame rate mode                : Constant
Frame rate                     : 23.976 fps
Bit depth                      : 10 bits
Scan type                      : Progressive
Bits/(Pixel*Frame)             : 0.044
Stream size                    : 490 MiB (89%)
Writing library                : x264 core 129 r2245 bc13772

Audio
Format                         : AAC
Format/Info                    : Advanced Audio Codec
Duration                       : 1h 38mn
Bit rate mode                  : Variable
Bit rate                       : 83.8 Kbps
Channel(s)                     : 2 channels
Channel positions              : Front: L R
Sampling rate                  : 48.0 KHz / 24.0 KHz
Stream size                    : 59.0 MiB (11%)
Language                       : English

Subtitle                       : No

Screens: 
http://imgr.us/images/qz81ct7jb22bus697ht.jpg 
http://imgr.us/images/huiqgm1p4unoi6cbt0xz.jpg 
http://imgr.us/images/mvgedbi4m0dddnpbv.jpg 
http://imgr.us/images/qw8ns74n0unnx7zzopq.jpg

Thumbs: 
http://imgr.us/images/m2vwx0lufd10htmq0xn.jpg
----------------------------------------------------------------------------------------------------
Encoded using revolutionary 10bit encoding, which enables us to provide you more crispier 
and sharper images at small sizes, just make sure you follow our instructions without a fault.
Recommend to you to use latest version of VLC player. Install K-Lite Codec Pack or shark007 codecs
in case of any kind of problem in playback (For non-VLC Media Player users). Alternatively, install
Core AVC codecs, the fastest decoder that there is coupled with Community Center Codec Pack and play
on Windows Media Player Classic. Check sample to be sure.
Enjoy!